<svg fill="#000000" viewBox="0 0 1024 1024"
    xmlns="http://www.w3.org/2000/svg" stroke="#000000" stroke-width="49.152">
    <g id="SVGRepo_bgCarrier" stroke-width="0"></g>
    <g id="SVGRepo_tracerCarrier" stroke-linecap="round" stroke-linejoin="round"></g>
    <g id="SVGRepo_iconCarrier">
        <path d="M912 192H328c-4.4 0-8 3.6-8 8v56c0 4.4 3.6 8 8 8h584c4.4 0 8-3.6 8-8v-56c0-4.4-3.6-8-8-8zm0 284H328c-4.4 0-8 3.6-8 8v56c0 4.4 3.6 8 8 8h584c4.4 0 8-3.6 8-8v-56c0-4.4-3.6-8-8-8zm0 284H328c-4.4 0-8 3.6-8 8v56c0 4.4 3.6 8 8 8h584c4.4 0 8-3.6 8-8v-56c0-4.4-3.6-8-8-8zM104 228a56 56 0 1 0 112 0 56 56 0 1 0-112 0zm0 284a56 56 0 1 0 112 0 56 56 0 1 0-112 0zm0 284a56 56 0 1 0 112 0 56 56 0 1 0-112 0z"></path>
    </g>
</svg>